<svg aria-hidden="true" style="position: absolute; width: 0; height: 0; overflow: hidden;" version="1.1" xmlns="http://www.w3.org/2000/svg" xmlns:xlink="http://www.w3.org/1999/xlink">
<defs>
<symbol id="icon-behance" viewBox="0 0 20 20">
<path d="M8.072 9.301c0 0 1.892-0.147 1.892-2.459 0-2.315-1.548-3.441-3.51-3.441h-6.454v12.926h6.454c0 0 3.941 0.129 3.941-3.816-0.001-0.001 0.171-3.21-2.323-3.21zM2.844 5.697h3.61c0 0 0.878 0 0.878 1.344 0 1.346-0.516 1.541-1.102 1.541h-3.386v-2.885zM6.271 14.029h-3.427v-3.455h3.61c0 0 1.308-0.018 1.308 1.775 0 1.512-0.977 1.669-1.491 1.68zM15.649 6.688c-4.771 0-4.767 4.967-4.767 4.967s-0.326 4.941 4.767 4.941c0 0 4.243 0.254 4.243-3.437h-2.182c0 0 0.072 1.391-1.988 1.391 0 0-2.184 0.152-2.184-2.25h6.423c0.001-0.001 0.709-5.612-4.312-5.612zM17.59 10.574h-4.074c0 0 0.266-1.992 2.182-1.992s1.892 1.992 1.892 1.992zM18.097 4.16h-5.117v1.594h5.117v-1.594z"></path>
</symbol>
<symbol id="icon-dribbble" viewBox="0 0 20 20">
<path d="M9.565 7.421c-1.358-2.414-2.811-4.383-2.917-4.528-2.191 1.036-3.826 3.055-4.337 5.487 0.206 0.004 3.482 0.043 7.254-0.959zM10.543 10.061c0.102-0.033 0.206-0.064 0.309-0.094-0.197-0.447-0.412-0.895-0.637-1.336-4.046 1.212-7.928 1.124-8.065 1.12-0.003 0.084-0.007 0.166-0.007 0.25 0 2.019 0.763 3.861 2.016 5.252l-0.005-0.006c0 0 2.15-3.814 6.389-5.186zM5.171 16.194v-0.004c-0.058-0.045-0.12-0.086-0.178-0.135 0.106 0.085 0.178 0.139 0.178 0.139zM8.118 2.372c-0.007 0.002-0.015 0.004-0.015 0.004 0.006-0.002 0.014-0.002 0.014-0.002l0.001-0.002zM15.189 4.104c-1.384-1.218-3.199-1.961-5.189-1.961-0.639 0-1.258 0.078-1.852 0.221 0.12 0.16 1.595 2.119 2.938 4.584 2.962-1.109 4.081-2.812 4.103-2.844zM10 19.2c-5.080 0-9.199-4.119-9.199-9.199-0.001-5.082 4.118-9.201 9.199-9.201s9.2 4.119 9.2 9.201c0 5.080-4.118 9.199-9.2 9.199zM11.336 11.286c-4.611 1.607-6.134 4.838-6.165 4.904 1.334 1.041 3.006 1.666 4.828 1.666 1.088 0 2.125-0.221 3.067-0.621-0.116-0.689-0.573-3.096-1.679-5.967-0.016 0.006-0.033 0.012-0.051 0.018zM11.69 8.12c0.184 0.373 0.358 0.754 0.523 1.139 0.059 0.135 0.114 0.272 0.17 0.406 2.713-0.342 5.385 0.238 5.473 0.256-0.019-1.863-0.686-3.572-1.787-4.912-0.018 0.023-1.279 1.843-4.379 3.111zM12.861 10.905c1.031 2.836 1.449 5.142 1.529 5.611 1.764-1.191 3.018-3.080 3.367-5.27-0.156-0.050-2.356-0.747-4.896-0.341z"></path>
</symbol>
<symbol id="icon-instagram" viewBox="0 0 20 20">
<path d="M17 1h-14c-1.1 0-2 0.9-2 2v14c0 1.101 0.9 2 2 2h14c1.1 0 2-0.899 2-2v-14c0-1.1-0.9-2-2-2zM9.984 15.523c3.059 0 5.538-2.481 5.538-5.539 0-0.338-0.043-0.664-0.103-0.984h1.581v7.216c0 0.382-0.31 0.69-0.693 0.69h-12.614c-0.383 0-0.693-0.308-0.693-0.69v-7.216h1.549c-0.061 0.32-0.104 0.646-0.104 0.984 0 3.059 2.481 5.539 5.539 5.539zM6.523 9.984c0-1.912 1.55-3.461 3.462-3.461s3.462 1.549 3.462 3.461-1.551 3.462-3.462 3.462c-1.913 0-3.462-1.55-3.462-3.462zM16.307 6h-1.615c-0.382 0-0.692-0.312-0.692-0.692v-1.617c0-0.382 0.31-0.691 0.691-0.691h1.615c0.384 0 0.694 0.309 0.694 0.691v1.616c0 0.381-0.31 0.693-0.693 0.693z"></path>
</symbol>
<symbol id="icon-linkedin" viewBox="0 0 20 20">
<path d="M5 3c0 1.062-0.71 1.976-2.001 1.976-1.215 0-1.999-0.862-1.999-1.924 0-1.090 0.76-2.052 2-2.052s1.976 0.91 2 2zM1 19v-13h4v13h-4z"></path>
<path d="M7 10.444c0-1.545-0.051-2.836-0.102-3.951h3.594l0.178 1.723h0.076c0.506-0.811 1.746-2 3.822-2 2.532 0 4.432 1.695 4.432 5.342v7.442h-4v-6.861c0-1.594-0.607-2.81-2-2.81-1.062 0-1.594 0.86-1.873 1.569-0.102 0.254-0.127 0.608-0.127 0.963v7.139h-4v-8.556z"></path>
</symbol>
</defs>
</svg>
